<svg width="1819" height="700" viewBox="0 0 1819 700" fill="none" xmlns="http://www.w3.org/2000/svg">
<path d="M115.02 5.82C118.03 3.8 121.85 1.71 123.5 1.18C125.15 0.64 129.31 0.16 132.75 0.1C136.95 0.03 140.89 0.71 144.75 2.18C147.96 3.39 152.49 6.2 155 8.54C157.78 11.13 160.59 15.17 162.36 19.12C164.61 24.12 165.21 26.9 165.16 32C165.12 35.58 164.47 40.3 163.7 42.5C162.94 44.7 158.25 52.58 153.29 60C148.33 67.43 140.76 79.35 136.48 86.5C132.19 93.65 124.81 107.15 120.07 116.5C115.33 125.85 109.35 138.45 106.79 144.5C104.22 150.55 100.45 159.78 98.41 165C96.36 170.22 92.26 181.93 89.29 191C86.32 200.07 81.69 216.5 79 227.5C76.32 238.5 72.96 254.47 71.56 263C70.15 271.52 68.35 284.13 67.56 291C66.77 297.88 65.58 311.38 64.93 321C64.2 331.7 63.97 347.24 64.34 361C64.68 373.38 65.64 390.36 66.48 398.75C67.31 407.14 68.68 418.84 69.52 424.75C70.35 430.66 72.39 442.25 74.05 450.5C75.71 458.75 78.88 472.48 81.09 481C83.31 489.52 88.02 505.16 91.56 515.75C95.1 526.34 100.74 541.41 104.09 549.25C107.43 557.09 113.49 570.25 117.54 578.5C121.59 586.75 128.12 599.13 132.04 606C135.97 612.88 144.37 626.38 150.72 636C157.06 645.63 162.68 654.63 163.2 656C163.72 657.38 164.56 660.64 165.07 663.25C165.67 666.3 165.63 669.88 164.97 673.25C164.41 676.14 163.02 680.3 161.89 682.5C160.76 684.7 157.96 688.42 155.67 690.76C153.37 693.1 149.25 696.01 146.5 697.24C142.62 698.96 139.59 699.46 133 699.48C125.94 699.5 123.65 699.08 119.5 697.02C116.75 695.66 112.81 692.85 110.75 690.77C108.69 688.7 103.03 681.04 98.18 673.75C93.33 666.46 85.37 653.75 80.48 645.5C75.6 637.25 66.56 620.38 60.38 608C54.21 595.63 45.8 576.95 41.7 566.5C37.59 556.05 32.39 542.1 30.13 535.5C27.88 528.9 24.2 516.98 21.95 509C19.69 501.02 16.51 488.65 14.86 481.5C13.22 474.35 10.81 462.65 9.51 455.5C8.22 448.35 6.22 435.52 5.08 427C3.94 418.48 2.33 403.4 1.5 393.5C0.65 383.35 9.31323e-10 364.16 0.01 349.5C0.02 335.2 0.68 315.85 1.48 306.5C2.28 297.15 3.84 282.52 4.94 274C6.05 265.48 8.06 252.43 9.41 245C10.76 237.57 13.21 225.65 14.85 218.5C16.48 211.35 19.7 198.97 22 191C24.29 183.03 28.33 170.2 30.97 162.5C33.61 154.8 37.58 143.78 39.8 138C42.02 132.22 45.45 123.67 47.41 119C49.37 114.33 55.74 101.05 61.57 89.5C67.39 77.95 76.59 61.08 82.01 52C87.44 42.92 95.85 29.65 100.71 22.5C107.78 12.1 110.64 8.76 115.02 5.82Z" fill="#040404"/>
<path d="M1664.5 8.28C1667.25 5.85 1671.75 3.02 1674.5 1.99C1677.25 0.95 1681.97 0.08 1685 0.06C1688.03 0.03 1692.3 0.51 1694.5 1.12C1696.7 1.73 1700.94 3.86 1703.92 5.86C1707.91 8.54 1711.16 12.13 1716.26 19.5C1720.06 25 1726.77 35.35 1731.16 42.5C1735.55 49.65 1741.37 59.33 1744.09 64C1746.82 68.68 1753.74 81.95 1759.48 93.5C1765.22 105.05 1773.03 122.38 1776.84 132C1780.64 141.63 1785.86 155.8 1788.43 163.5C1791 171.2 1794.84 183.57 1796.95 191C1799.07 198.43 1801.51 207.43 1802.37 211C1803.23 214.57 1804.82 221.32 1805.9 226C1806.99 230.68 1809.01 241.25 1810.39 249.5C1811.78 257.75 1813.61 269.9 1814.45 276.5C1815.3 283.1 1816.67 296.82 1817.5 307C1818.33 317.18 1819 336.86 1819 350.75C1819 364.91 1818.33 383.79 1817.48 393.75C1816.64 403.51 1815.26 416.9 1814.42 423.5C1813.57 430.1 1811.53 443.38 1809.88 453C1808.23 462.63 1805.09 477.7 1802.9 486.5C1800.71 495.3 1797.56 507.23 1795.91 513C1794.25 518.77 1790.83 529.58 1788.3 537C1785.77 544.42 1781.24 556.8 1778.23 564.5C1775.22 572.2 1769.66 585.14 1765.88 593.25C1762.09 601.36 1756.23 613.29 1752.84 619.75C1749.45 626.21 1742.84 638.02 1738.16 646C1733.48 653.98 1725.12 667.23 1719.58 675.45C1712.62 685.77 1708.11 691.42 1705 693.7C1702.53 695.52 1698.03 697.73 1695 698.63C1691.39 699.7 1687.43 700.09 1683.5 699.78C1680.2 699.51 1675.25 698.3 1672.5 697.09C1669.75 695.89 1665.99 693.46 1664.14 691.7C1662.29 689.94 1659.78 686.92 1658.54 685C1657.31 683.08 1655.73 679.7 1655.03 677.5C1654.32 675.3 1653.74 671.02 1653.74 668C1653.74 664.98 1654.3 660.7 1654.99 658.5C1655.68 656.3 1660.84 647.52 1666.46 639C1672.08 630.48 1680 617.88 1684.05 611C1688.09 604.13 1695.33 590.63 1700.12 581C1704.91 571.38 1710.89 558.66 1713.41 552.75C1715.94 546.84 1719.75 537.39 1721.89 531.75C1724.04 526.11 1728.06 514.3 1730.84 505.5C1733.62 496.7 1737.7 482.07 1739.9 473C1742.11 463.93 1745.04 450.43 1746.42 443C1747.8 435.57 1749.6 424.1 1750.43 417.5C1751.25 410.9 1752.49 399.88 1753.19 393C1753.91 385.92 1754.46 367.48 1754.47 350.5C1754.47 333.77 1753.92 314.75 1753.21 307.5C1752.52 300.35 1751.25 289.1 1750.4 282.5C1749.55 275.9 1747.74 264.43 1746.37 257C1745 249.57 1742.07 236.07 1739.86 227C1737.65 217.93 1734.02 204.65 1731.8 197.5C1729.58 190.35 1725.18 177.53 1722.03 169C1718.88 160.47 1713.45 147.2 1709.98 139.5C1706.5 131.8 1700.77 119.88 1697.24 113C1693.71 106.13 1689.21 97.8 1687.24 94.5C1685.26 91.2 1681.63 85.13 1679.15 81C1676.68 76.88 1670.61 67.43 1665.67 60C1660.73 52.58 1656.05 44.7 1655.28 42.5C1654.5 40.3 1653.84 35.58 1653.81 32C1653.76 26.91 1654.37 24.11 1656.63 19.09C1658.61 14.66 1661.05 11.32 1664.5 8.28Z" fill="#040404"/>
<path d="M221.5 67.3C224.25 65.42 227.85 63.49 229.5 63.03C231.15 62.56 235.65 62.13 239.5 62.08C243.69 62.02 248.51 62.65 251.5 63.66C254.94 64.83 258.24 67.09 262.08 70.93C265.98 74.82 268.32 78.24 269.83 82.25C271.16 85.76 271.99 90.24 271.98 93.75C271.96 97.44 271.13 101.47 269.66 105C268.39 108.03 263.94 115.22 259.75 121C255.57 126.78 248.46 137.57 243.96 145C239.46 152.43 232.04 166.15 227.47 175.5C222.91 184.85 217.52 196.55 215.49 201.5C213.47 206.45 209.88 216.12 207.53 223C205.17 229.87 201.65 241.57 199.7 249C197.74 256.43 195.25 267 194.14 272.5C193.04 278 191.44 287.45 190.59 293.5C189.74 299.55 188.59 309.9 188.03 316.5C187.48 323.1 187.02 337.95 187.01 349.5C187 361.05 187.47 376.57 188.05 384C188.63 391.43 190.22 404.48 191.58 413C192.94 421.52 195.44 434.12 197.12 441C198.81 447.87 202.2 460.02 204.67 468C207.13 475.98 211.19 487.68 213.69 494C216.19 500.32 221.46 512.25 225.42 520.5C229.38 528.75 235.4 540.34 238.81 546.25C242.21 552.16 248.85 562.74 253.55 569.75C258.25 576.76 263.68 584.75 265.62 587.5C267.55 590.25 269.84 594.98 270.7 598C271.75 601.71 272.07 605.45 271.67 609.5C271.34 612.8 269.98 617.75 268.63 620.5C267.28 623.26 263.79 627.65 260.84 630.29C257.9 632.93 253.48 635.75 251 636.55C248.53 637.36 243.35 638 239.5 637.97C235.65 637.94 230.7 637.26 228.5 636.46C226.3 635.66 222.76 633.77 220.64 632.25C218.51 630.74 213.97 625.67 210.54 621C207.1 616.33 202.49 609.8 200.28 606.5C198.06 603.2 192.57 594.42 188.07 587C183.56 579.58 175.48 564.73 170.11 554C164.74 543.27 158.05 528.65 155.23 521.5C152.42 514.35 148.33 503.1 146.14 496.5C143.96 489.9 140.82 479.77 139.18 474C137.54 468.23 135.04 458.32 133.62 452C132.2 445.68 130.15 435.32 129.06 429C127.98 422.68 126.41 411.88 125.58 405C124.75 398.13 123.6 385.64 123.03 377.25C122.46 368.86 122 356.82 122 350.5C122 344.18 122.46 332.14 123.02 323.75C123.58 315.36 124.72 302.65 125.55 295.5C126.37 288.35 128.18 276.2 129.56 268.5C130.94 260.8 133.9 247.07 136.12 238C138.35 228.93 142.33 214.97 144.99 207C147.64 199.03 151.83 187.32 154.3 181C156.77 174.68 161.2 164.32 164.15 158C167.1 151.68 172.38 141.1 175.88 134.5C179.38 127.9 185.82 116.65 190.19 109.5C194.56 102.35 202.27 90.7 207.32 83.61C213.91 74.35 217.91 69.75 221.5 67.3Z" fill="#040404"/>
<path d="M1558.16 69.7C1561.1 67.06 1565.3 64.26 1567.5 63.47C1570.15 62.53 1574.54 62.14 1580.5 62.34C1587.2 62.55 1590.52 63.16 1593.5 64.69C1595.7 65.83 1598.85 67.87 1600.5 69.24C1602.15 70.6 1607.83 77.97 1613.13 85.61C1618.43 93.25 1626.45 105.58 1630.96 113C1635.47 120.42 1643.81 135.95 1649.5 147.5C1655.18 159.05 1661.95 173.9 1664.55 180.5C1667.14 187.1 1670.57 196.32 1672.17 201C1673.76 205.68 1676.81 215.57 1678.93 223C1681.06 230.43 1683.96 241.68 1685.38 248C1686.8 254.32 1688.83 264.45 1689.9 270.5C1690.96 276.55 1692.54 287.57 1693.4 295C1694.26 302.43 1695.43 315.36 1695.98 323.75C1696.54 332.14 1697 344.29 1696.99 350.75C1696.99 357.21 1696.33 371.27 1695.54 382C1694.74 392.73 1693.6 405.1 1693 409.5C1692.4 413.9 1690.99 422.9 1689.87 429.5C1688.75 436.1 1685.87 449.6 1683.47 459.5C1681.06 469.4 1676.88 484.25 1674.18 492.5C1671.48 500.75 1666.98 513.35 1664.17 520.5C1661.36 527.65 1654.58 542.5 1649.1 553.5C1643.62 564.5 1635.45 579.58 1630.95 587C1626.45 594.42 1619.37 605.45 1615.23 611.5C1611.08 617.55 1606.02 624.52 1603.98 627C1601.93 629.48 1597.84 632.83 1594.88 634.45C1590.43 636.89 1588.03 637.48 1581 637.84C1573.26 638.23 1571.93 638.01 1566.11 635.39C1562.06 633.55 1558.24 630.86 1555.66 628C1553.43 625.52 1550.69 621.48 1549.57 619C1548.09 615.71 1547.54 612.34 1547.52 606.5C1547.5 599.78 1547.94 597.62 1550.22 593C1551.71 589.98 1557.06 581.65 1562.09 574.5C1567.13 567.35 1573.92 557 1577.17 551.5C1580.43 546 1586.17 535.42 1589.94 528C1593.71 520.58 1598.92 509.55 1601.52 503.5C1604.11 497.45 1608.85 484.62 1612.04 475C1615.23 465.37 1619.43 450.98 1621.37 443C1623.3 435.02 1625.79 423.32 1626.88 417C1627.97 410.68 1629.46 400.55 1630.18 394.5C1631.03 387.39 1631.5 371.47 1631.49 349.5C1631.48 322.72 1631.09 312.53 1629.68 301.5C1628.69 293.8 1626.77 281.87 1625.41 275C1624.04 268.12 1621.39 256.65 1619.5 249.5C1617.62 242.35 1614 230.43 1611.46 223C1608.92 215.57 1604.36 203.65 1601.33 196.5C1598.29 189.35 1592.95 177.87 1589.45 171C1585.95 164.12 1581.22 155.35 1578.93 151.5C1576.64 147.65 1572.92 141.57 1570.65 138C1568.39 134.43 1563.18 126.78 1559.08 121C1554.98 115.22 1550.52 107.8 1549.18 104.5C1547.21 99.64 1546.83 97.26 1547.18 92C1547.46 87.83 1548.55 83.53 1550.22 80C1551.81 76.62 1554.87 72.65 1558.16 69.7Z" fill="#040404"/>
<path d="M330 128.18C332.48 126.73 336.52 124.97 339 124.28C341.48 123.58 345.98 123.18 349 123.38C352.02 123.58 356.93 124.82 359.89 126.12C363.11 127.54 367.04 130.42 369.64 133.25C372.04 135.86 374.96 140.14 376.14 142.75C377.31 145.36 378.49 149.97 378.77 153C379.08 156.48 378.66 160.61 377.63 164.25C376.5 168.25 374.08 172.51 369.67 178.25C366.18 182.79 361.11 189.65 358.39 193.5C355.67 197.35 351.39 203.87 348.88 208C346.37 212.12 342.16 219.55 339.53 224.5C336.89 229.45 332.71 238.45 330.23 244.5C327.75 250.55 324.21 260 322.35 265.5C320.5 271 317.67 281.35 316.06 288.5C314.45 295.65 312.33 306.68 311.35 313C310 321.64 309.55 330.58 309.53 349C309.51 367.49 309.94 376.57 311.31 386C312.3 392.87 314.44 404.35 316.05 411.5C317.67 418.65 320.5 429 322.36 434.5C324.21 440 327.87 449.68 330.49 456C333.11 462.32 337.28 471.32 339.77 476C342.25 480.68 347.23 489.23 350.84 495C354.44 500.77 361.32 510.68 366.12 517C370.93 523.33 375.65 530.3 376.61 532.5C377.777 535.167 378.38 539.167 378.42 544.5C378.47 550.8 378 553.56 376.2 557.5C374.94 560.25 371.79 564.64 369.2 567.25C366.62 569.87 362.25 572.99 359.5 574.19C355.85 575.79 352.48 576.39 347 576.41C341.02 576.42 338.38 575.91 334 573.87C330.98 572.47 326.97 570.01 325.1 568.41C323.22 566.81 317.84 560.33 313.12 554C308.41 547.67 300.96 536.87 296.58 530C292.19 523.12 285.8 512.1 282.37 505.5C278.94 498.9 274.04 488.55 271.47 482.5C268.9 476.45 264.62 464.98 261.97 457C259.32 449.02 256.02 438 254.64 432.5C253.26 427 251.21 417.32 250.07 411C248.94 404.68 247.38 394.1 246.6 387.5C245.82 380.79 245.14 364.92 245.08 351.5C245.01 338.3 245.43 322.77 246.02 317C246.6 311.23 247.97 301.1 249.07 294.5C250.16 287.9 252.43 276.87 254.11 270C255.79 263.12 258.91 252.1 261.05 245.5C263.18 238.9 267.22 227.87 270.03 221C272.84 214.12 278.17 202.65 281.88 195.5C285.58 188.35 292.04 177.1 296.22 170.5C300.41 163.9 307.52 153.55 312.03 147.5C316.55 141.45 321.42 135.22 322.87 133.66C324.32 132.1 327.52 129.63 330 128.18Z" fill="#040404"/>
<path d="M1457.25 126.92C1459.31 125.86 1462.69 124.57 1464.75 124.04C1466.81 123.51 1471.2 123.29 1474.5 123.54C1478.34 123.83 1482.66 125.05 1486.5 126.92C1490.57 128.9 1494.13 131.72 1497.57 135.67C1500.36 138.88 1505.76 145.77 1509.57 151C1513.38 156.22 1520.01 166.12 1524.31 173C1528.6 179.87 1534.74 190.68 1537.95 197C1541.16 203.32 1545.59 212.78 1547.79 218C1549.99 223.22 1553.14 231.32 1554.79 236C1556.44 240.68 1559.22 249.45 1560.99 255.5C1562.75 261.55 1565.29 271.45 1566.63 277.5C1567.97 283.55 1569.99 294.35 1571.12 301.5C1572.64 311.2 1573.3 321.36 1573.7 341.5C1574.03 358.38 1573.8 373.18 1573.08 381C1572.45 387.87 1570.79 400.02 1569.4 408C1568.02 415.98 1565.75 427 1564.36 432.5C1562.98 438 1559.68 449.02 1557.05 457C1554.41 464.98 1550.14 476.45 1547.56 482.5C1544.97 488.55 1540.05 498.9 1536.62 505.5C1533.18 512.1 1526.81 523.12 1522.45 530C1518.1 536.87 1511.63 546.33 1508.08 551C1504.54 555.67 1499.58 561.9 1497.07 564.84C1493.93 568.51 1490.48 571.17 1486.02 573.34C1480.43 576.07 1478.51 576.49 1472.02 576.43C1466.17 576.38 1463.28 575.8 1459 573.82C1455.97 572.42 1451.75 569.53 1449.61 567.39C1447.47 565.25 1444.55 561.02 1443.12 558C1441.03 553.6 1440.51 551 1440.51 545C1440.5 540 1441.11 536 1442.34 533C1443.36 530.52 1448.13 523.33 1452.94 517C1457.76 510.68 1464.1 501.68 1467.05 497C1469.99 492.32 1474.82 484 1477.79 478.5C1480.76 473 1485.23 463.77 1487.72 458C1490.21 452.23 1493.99 442.32 1496.13 436C1498.26 429.68 1501.33 418.65 1502.94 411.5C1504.54 404.35 1506.67 393.1 1507.67 386.5C1509.04 377.38 1509.47 368.5 1509.48 349.5C1509.48 330.16 1509.07 321.9 1507.66 313C1506.65 306.68 1504.52 295.65 1502.91 288.5C1501.31 281.35 1498.82 271.9 1497.38 267.5C1495.93 263.1 1492.38 253.65 1489.47 246.5C1486.56 239.35 1481.28 228.1 1477.74 221.5C1474.2 214.9 1468.46 205.22 1464.98 200C1461.51 194.78 1455.14 185.89 1450.83 180.25C1445.08 172.73 1442.57 168.47 1441.37 164.25C1440.34 160.61 1439.92 156.48 1440.23 153C1440.51 149.97 1441.71 145.25 1442.91 142.5C1444.11 139.75 1446.99 135.55 1449.3 133.17C1451.61 130.78 1455.19 127.97 1457.25 126.92Z" fill="#040404"/>
<path d="M440.25 189.84C442.59 188.65 445.85 187.32 447.5 186.88C449.15 186.44 453.43 186.21 457 186.35C461.5 186.54 465.19 187.42 469 189.22C472.02 190.66 476.19 193.67 478.25 195.92C480.31 198.16 483.01 201.91 484.25 204.25C486.12 207.79 486.49 210.08 486.49 218C486.49 225.75 486.1 228.24 484.38 231.5C483.21 233.7 477.87 240.45 472.51 246.5C467.15 252.55 460.06 261.55 456.76 266.5C453.46 271.45 449.07 278.87 447 283C444.93 287.12 441.88 294.32 440.23 299C438.58 303.68 436.52 310.43 435.65 314C434.79 317.57 433.61 323.2 433.04 326.5C432.47 329.8 431.73 337.68 431.39 344C430.96 352.12 431.27 359.18 432.43 368C433.34 374.87 435.18 384.55 436.52 389.5C437.86 394.45 440.14 401.43 441.59 405C443.04 408.57 445.59 414.2 447.25 417.5C448.92 420.8 452.11 426.43 454.34 430C456.57 433.57 459.98 438.52 461.92 441C463.86 443.48 469.17 449.66 473.72 454.75C478.28 459.84 483.01 465.91 484.25 468.25C486.12 471.79 486.49 474.08 486.49 482C486.49 490.36 486.17 492.1 483.83 496.5C482.37 499.25 479.45 503.17 477.34 505.2C475.23 507.24 471.25 509.93 468.5 511.2C464.52 513.03 461.77 513.49 455 513.48C448.05 513.47 445.59 513.02 441.5 511.03C438.75 509.69 433.35 505.42 429.5 501.54C425.65 497.66 419.07 490.21 414.87 484.99C410.67 479.77 404.44 471.23 401.02 466C397.59 460.77 392.86 452.68 390.51 448C388.15 443.32 385.01 436.57 383.53 433C382.05 429.43 379.49 422.45 377.83 417.5C376.18 412.55 373.75 404 372.43 398.5C371.11 393 369.35 382.65 368.52 375.5C367.68 368.35 367 356.76 367 349.75C367 342.74 367.48 332.61 368.06 327.25C368.64 321.89 370.02 313 371.12 307.5C372.21 302 374.28 293.68 375.69 289C377.11 284.32 379.84 276.45 381.75 271.5C383.66 266.55 387.38 258.23 390 253C392.63 247.78 398.04 238.55 402.02 232.5C406 226.45 412.46 217.68 416.38 213C420.29 208.33 426.31 201.69 429.75 198.25C433.19 194.81 437.91 191.03 440.25 189.84Z" fill="#040404"/>
<path d="M1343 193.8C1345.47 191.65 1349.75 189.02 1352.5 187.94C1356.3 186.45 1359.3 186.07 1365 186.33C1370.8 186.59 1373.75 187.31 1378 189.49C1381.03 191.04 1386.22 195.05 1389.54 198.4C1392.87 201.76 1398.76 208.32 1402.64 213C1406.52 217.68 1412.41 225.55 1415.72 230.5C1419.03 235.45 1424.02 243.77 1426.82 249C1429.61 254.22 1433.67 262.77 1435.84 268C1438 273.23 1441.15 282 1442.84 287.5C1444.52 293 1446.8 302 1447.9 307.5C1449 313 1450.38 322.23 1450.96 328C1451.54 333.77 1452.01 343.9 1452.01 350.5C1452 357.1 1451.32 368.35 1450.48 375.5C1449.65 382.65 1447.84 393.23 1446.46 399C1445.08 404.77 1443 412.43 1441.83 416C1440.67 419.57 1438.18 426.32 1436.3 431C1434.43 435.68 1430.53 444 1427.64 449.5C1424.76 455 1419.85 463.32 1416.75 468C1413.65 472.68 1408.21 480.1 1404.67 484.5C1401.13 488.9 1394.69 496.12 1390.37 500.54C1385.69 505.33 1380.47 509.57 1377.5 511.02C1373.41 513.01 1370.95 513.45 1364 513.47C1357.24 513.48 1354.48 513.01 1350.5 511.19C1347.75 509.93 1343.77 507.24 1341.66 505.2C1339.55 503.17 1336.63 499.25 1335.17 496.5C1332.83 492.1 1332.51 490.36 1332.51 482C1332.51 473.88 1332.86 471.84 1334.91 468C1336.23 465.52 1340.84 459.68 1345.17 455C1349.49 450.32 1355.76 442.68 1359.11 438C1362.45 433.32 1366.82 426.57 1368.82 423C1370.81 419.43 1374.09 412.68 1376.1 408C1378.11 403.32 1380.9 395.23 1382.29 390C1383.69 384.77 1385.42 377.12 1386.14 373C1386.86 368.87 1387.43 358.52 1387.42 350C1387.41 341.48 1386.82 331.12 1386.12 327C1385.42 322.87 1383.95 316.12 1382.86 312C1381.76 307.87 1379.7 301.35 1378.28 297.5C1376.86 293.65 1374.01 287.12 1371.95 283C1369.89 278.87 1365.53 271.45 1362.27 266.5C1359 261.55 1352.31 253.08 1347.41 247.68C1342.51 242.28 1337.15 235.53 1335.5 232.68C1332.74 227.92 1332.5 226.74 1332.5 218C1332.5 209.31 1332.76 208.04 1335.5 203.11C1337.15 200.14 1340.53 195.95 1343 193.8Z" fill="#040404"/>
<path d="M548.8 441V285.88C548.8 264.04 560.84 250.6 580.44 250.6C589.12 250.6 595.84 253.4 603.4 260.4L715.68 362.88V253.68H771.12V409.08C771.12 430.64 759.08 444.36 739.48 444.36C730.8 444.36 724.08 441.28 716.24 434L604.52 332.08V441H548.8Z" fill="black"/>
<path d="M863.264 302.4V327.6H1004.66L968.544 373.8H863.264V441H805.304V253.68H1015.3L978.064 302.4H863.264Z" fill="black"/>
<path d="M1221.81 441H1127.73C1063.05 441 1014.89 400.12 1014.89 345.52C1014.89 291.76 1061.65 253.68 1127.73 253.68H1258.77L1221.81 302.4H1127.73C1091.61 302.4 1072.57 317.24 1072.57 345.52C1072.57 374.92 1093.01 392.28 1127.73 392.28H1258.77L1221.81 441Z" fill="black"/>
</svg>
